<svg xmlns="http://www.w3.org/2000/svg" width="30" height="30" viewBox="0 0 30 30"><g transform="translate(-862 -518)"><g transform="translate(862 518)" fill="none"><path d="M15,0A15,15,0,1,1,0,15,15,15,0,0,1,15,0Z" stroke="none"/><path d="M 15 2 C 11.5275707244873 2 8.262990951538086 3.352239608764648 5.807609558105469 5.807609558105469 C 3.352239608764648 8.262990951538086 2 11.5275707244873 2 15 C 2 18.47243118286133 3.352239608764648 21.73701095581055 5.807609558105469 24.19239044189453 C 8.262990951538086 26.64776039123535 11.5275707244873 28 15 28 C 18.47243118286133 28 21.73701095581055 26.64776039123535 24.19239044189453 24.19239044189453 C 26.64776039123535 21.73701095581055 28 18.47243118286133 28 15 C 28 11.5275707244873 26.64776039123535 8.262990951538086 24.19239044189453 5.807609558105469 C 21.73701095581055 3.352239608764648 18.47243118286133 2 15 2 M 15 0 C 23.28426933288574 0 30 6.715730667114258 30 15 C 30 23.28426933288574 23.28426933288574 30 15 30 C 6.715730667114258 30 0 23.28426933288574 0 15 C 0 6.715730667114258 6.715730667114258 0 15 0 Z" stroke="none" fill="#333"/></g><path d="M22.925,11.4a5.521,5.521,0,0,1-1.772.466,2.637,2.637,0,0,0,1.306-1.679,6.12,6.12,0,0,1-1.959.746A3.257,3.257,0,0,0,18.261,10a3.088,3.088,0,0,0-2.985,3.078,1.383,1.383,0,0,0,.093.653A8.584,8.584,0,0,1,9.026,10.56a2.858,2.858,0,0,0-.373,1.586,3.061,3.061,0,0,0,1.4,2.519,3.909,3.909,0,0,1-1.4-.373h0a3.011,3.011,0,0,0,2.425,2.985,2.583,2.583,0,0,1-.84.093,1.183,1.183,0,0,1-.56-.093,3.022,3.022,0,0,0,2.892,2.146,5.932,5.932,0,0,1-3.825,1.306H8a9.1,9.1,0,0,0,4.664,1.4,8.635,8.635,0,0,0,8.675-8.675v-.373A5.423,5.423,0,0,0,22.925,11.4Z" transform="translate(862 516.933)" fill="#333"/></g></svg>