<svg xmlns="http://www.w3.org/2000/svg" width="170" height="51" viewBox="0 0 170 51"><path d="M38.729.11A3.918,3.918,0,0,0,35.965,1.2a3.454,3.454,0,0,0-1.157,2.454L0,47.579H3.053L34.8,7.514V20.249a3.454,3.454,0,0,0,1.165,2.621,3.91,3.91,0,0,0,2.764,1.087.927.927,0,0,1,.666.256.85.85,0,0,1,.266.639V41.73a.848.848,0,0,1-.266.639.994.994,0,0,1-1.332,0,.845.845,0,0,1-.267-.639V24.916h-3V41.474a3.523,3.523,0,0,0,1.165,2.685,3.91,3.91,0,0,0,2.764,1.087,3.8,3.8,0,0,0,2.73-1.087,3.575,3.575,0,0,0,1.132-2.685V25.108a3.5,3.5,0,0,0-1.132-2.621,3.8,3.8,0,0,0-2.73-1.087.868.868,0,0,1-.666-.288.955.955,0,0,1-.267-.671V3.627a.953.953,0,0,1,.267-.671.914.914,0,0,1,1.332,0,.957.957,0,0,1,.266.671v16.75h2.93V3.819A3.508,3.508,0,0,0,41.459,1.2,3.8,3.8,0,0,0,38.729.11Z"/><path d="M47.452.366h-3V41.474a3.52,3.52,0,0,0,1.166,2.685,3.907,3.907,0,0,0,2.763,1.087,3.8,3.8,0,0,0,2.73-1.087,3.575,3.575,0,0,0,1.132-2.685V10.723h-2.93V41.73a.848.848,0,0,1-.266.639.994.994,0,0,1-1.332,0,.844.844,0,0,1-.266-.639V8.933h4.794V6.312H47.452Z"/><path d="M58.039,6.12a3.916,3.916,0,0,0-2.763,1.087A3.456,3.456,0,0,0,54.11,9.828V41.474a3.524,3.524,0,0,0,1.166,2.685,3.907,3.907,0,0,0,2.763,1.087,3.8,3.8,0,0,0,2.73-1.087A3.571,3.571,0,0,0,61.9,41.474V9.828a3.5,3.5,0,0,0-1.132-2.621A3.8,3.8,0,0,0,58.039,6.12Zm.932,35.61a.848.848,0,0,1-.266.639.921.921,0,0,1-.666.256,1.042,1.042,0,0,1-.7-.256.8.8,0,0,1-.3-.639V9.573a.808.808,0,0,1,.3-.64,1.047,1.047,0,0,1,.7-.256.926.926,0,0,1,.666.256.853.853,0,0,1,.266.64Z"/><path d="M67.695,6.12a3.906,3.906,0,0,0-2.6.895,4.035,4.035,0,0,0-2.264-.7V8.933a.926.926,0,0,1,.666.256.854.854,0,0,1,.267.639V44.99h3V9.573a.851.851,0,0,1,.267-.64.993.993,0,0,1,1.331,0,.854.854,0,0,1,.267.64V26.962h2.93V9.828a3.5,3.5,0,0,0-1.132-2.621A3.8,3.8,0,0,0,67.695,6.12Z"/><path d="M78.281,41.73a.848.848,0,0,1-.266.639.994.994,0,0,1-1.332,0,.848.848,0,0,1-.266-.639V6.312h-3V41.474a3.519,3.519,0,0,0,1.165,2.685,3.907,3.907,0,0,0,2.763,1.087,5.873,5.873,0,0,0,.932-.128V51h2.93V6.312h-2.93Z"/><path d="M92.8,41.73a.8.8,0,0,1-.3.639.961.961,0,0,1-.632.256,1.043,1.043,0,0,1-.7-.256.8.8,0,0,1-.3-.639V.366H87.936V41.73a.848.848,0,0,1-.266.639.993.993,0,0,1-1.331,0,.845.845,0,0,1-.267-.639V.366h-3V41.474a3.523,3.523,0,0,0,1.165,2.685A3.907,3.907,0,0,0,87,45.246a3.8,3.8,0,0,0,2.4-.831,3.884,3.884,0,0,0,2.464.831A3.793,3.793,0,0,0,94.6,44.159a3.572,3.572,0,0,0,1.133-2.685V.366H92.8Z"/><path d="M101.454,6.12a3.9,3.9,0,0,0-2.6.895,4.04,4.04,0,0,0-2.264-.7V8.933a.927.927,0,0,1,.666.256.856.856,0,0,1,.266.639V44.99h3V9.573a.851.851,0,0,1,.267-.64.994.994,0,0,1,1.332,0,.857.857,0,0,1,.266.64V26.962h2.93V9.828a3.5,3.5,0,0,0-1.132-2.621A3.8,3.8,0,0,0,101.454,6.12Z"/><rect x="107.18" y="6.312" width="2.996" height="38.678"/><rect x="107.18" y="0.366" width="2.996" height="4.156"/><path d="M114.971.366h-3V41.474a3.523,3.523,0,0,0,1.165,2.685,3.91,3.91,0,0,0,2.764,1.087,3.8,3.8,0,0,0,2.73-1.087,3.575,3.575,0,0,0,1.132-2.685V10.723h-2.93V41.73a.848.848,0,0,1-.266.639.994.994,0,0,1-1.332,0,.844.844,0,0,1-.266-.639V8.933h4.794V6.312h-4.794Z"/><path d="M125.558,6.12a3.918,3.918,0,0,0-2.764,1.087,3.455,3.455,0,0,0-1.165,2.621V41.474a3.523,3.523,0,0,0,1.165,2.685,3.91,3.91,0,0,0,2.764,1.087,3.8,3.8,0,0,0,2.73-1.087,3.575,3.575,0,0,0,1.132-2.685V28.752h-2.93V41.73a.848.848,0,0,1-.266.639.923.923,0,0,1-.666.256,1.042,1.042,0,0,1-.7-.256.8.8,0,0,1-.3-.639V26.962h4.861V9.828a3.5,3.5,0,0,0-1.132-2.621A3.8,3.8,0,0,0,125.558,6.12Zm.932,18.221h-1.864V9.573a.85.85,0,0,1,.266-.64.994.994,0,0,1,1.332,0,.853.853,0,0,1,.266.64Z"/><path d="M134.281,44.987,170,0l-3.053,0L134.281,41.137V9.573a.85.85,0,0,1,.266-.64.994.994,0,0,1,1.332,0,.853.853,0,0,1,.266.64V26.962h2.93V9.828a3.5,3.5,0,0,0-1.132-2.621,3.8,3.8,0,0,0-2.73-1.087,3.905,3.905,0,0,0-2.6.895,4.04,4.04,0,0,0-2.264-.7V8.933a.926.926,0,0,1,.666.256.854.854,0,0,1,.267.639V44.99h3Z"/></svg>