<svg xmlns="http://www.w3.org/2000/svg" width="152.242" height="29.08" viewBox="0 0 152.242 29.08"><path d="M3.7,0a.935.935,0,0,1-.682-.292A.935.935,0,0,1,2.73-.975v-25.35a.917.917,0,0,1,.293-.7A.969.969,0,0,1,3.7-27.3h10.92q4.992,0,7.858,2.3a8.094,8.094,0,0,1,2.866,6.708A7.8,7.8,0,0,1,22.5-11.72q-2.847,2.2-7.878,2.2H9.984V-.975a.917.917,0,0,1-.293.7A1.018,1.018,0,0,1,8.97,0ZM14.43-14.9a3.877,3.877,0,0,0,2.691-.878,3.311,3.311,0,0,0,.975-2.593,3.536,3.536,0,0,0-.916-2.555,3.642,3.642,0,0,0-2.75-.955H9.867V-14.9ZM30.069,0a.935.935,0,0,1-.682-.292.935.935,0,0,1-.293-.683v-25.35a.917.917,0,0,1,.293-.7.969.969,0,0,1,.682-.273h5.226a1.018,1.018,0,0,1,.722.273.917.917,0,0,1,.292.7V-.975a.917.917,0,0,1-.292.7A1.018,1.018,0,0,1,35.295,0ZM52.923.39q-5.577,0-8.716-2.711t-3.334-7.858q-.039-1.053-.039-3.432,0-2.418.039-3.51a10.309,10.309,0,0,1,3.393-7.819q3.2-2.749,8.658-2.749a15.73,15.73,0,0,1,6.162,1.15,10.126,10.126,0,0,1,4.31,3.276,8.307,8.307,0,0,1,1.618,4.972v.078a.664.664,0,0,1-.254.527.854.854,0,0,1-.565.215H58.929a1.238,1.238,0,0,1-.78-.215,1.681,1.681,0,0,1-.468-.8,4.738,4.738,0,0,0-1.716-2.788,5.364,5.364,0,0,0-3.081-.8q-4.6,0-4.758,5.148-.039,1.053-.039,3.237t.039,3.315q.156,5.148,4.758,5.148A5.36,5.36,0,0,0,56-6.064a4.475,4.475,0,0,0,1.677-2.75,1.482,1.482,0,0,1,.429-.8,1.311,1.311,0,0,1,.819-.215h5.265a.861.861,0,0,1,.6.234.656.656,0,0,1,.215.585,8.307,8.307,0,0,1-1.618,4.972,10.126,10.126,0,0,1-4.31,3.276A15.73,15.73,0,0,1,52.923.39ZM70.083,0A.935.935,0,0,1,69.4-.292a.935.935,0,0,1-.292-.683v-25.35a.917.917,0,0,1,.292-.7.969.969,0,0,1,.683-.273H75a.95.95,0,0,1,.7.273.95.95,0,0,1,.273.7v8.658l7.215-8.892a1.662,1.662,0,0,1,1.521-.741h5.616a.763.763,0,0,1,.585.253.814.814,0,0,1,.234.565.893.893,0,0,1-.117.468l-9.36,11.778L91.728-1.287a.636.636,0,0,1,.156.468.814.814,0,0,1-.234.565A.763.763,0,0,1,91.065,0H85.254a1.921,1.921,0,0,1-1.56-.78l-7.722-9.633V-.975a.95.95,0,0,1-.273.7A.95.95,0,0,1,75,0Zm44.46.39q-5.5,0-8.6-2.691t-3.1-8.112V-26.325a.917.917,0,0,1,.292-.7.969.969,0,0,1,.683-.273h5.031a1.018,1.018,0,0,1,.722.273.917.917,0,0,1,.292.7v15.873a5.377,5.377,0,0,0,1.189,3.8A4.506,4.506,0,0,0,114.5-5.382a4.48,4.48,0,0,0,3.432-1.287,5.333,5.333,0,0,0,1.209-3.783V-26.325a.917.917,0,0,1,.292-.7.969.969,0,0,1,.683-.273h5.07a.95.95,0,0,1,.7.273.95.95,0,0,1,.273.7v15.912q0,5.421-3.1,8.112T114.543.39ZM132.327,0a.935.935,0,0,1-.682-.292.935.935,0,0,1-.293-.683v-25.35a.917.917,0,0,1,.293-.7.969.969,0,0,1,.682-.273h10.92q4.992,0,7.859,2.3a8.094,8.094,0,0,1,2.866,6.708,7.8,7.8,0,0,1-2.847,6.571q-2.847,2.2-7.878,2.2h-4.641V-.975a.917.917,0,0,1-.292.7,1.018,1.018,0,0,1-.721.273Zm10.725-14.9a3.877,3.877,0,0,0,2.691-.878,3.311,3.311,0,0,0,.975-2.593,3.536,3.536,0,0,0-.916-2.555,3.642,3.642,0,0,0-2.749-.955h-4.563V-14.9Z" transform="translate(-2.23 28.19)" fill="none" stroke="#aaa" stroke-width="1"/></svg>
